<?xml version="1.0" standalone="no"?>
<!DOCTYPE svg PUBLIC "-//W3C//DTD SVG 20010904//EN"
 "http://www.w3.org/TR/2001/REC-SVG-20010904/DTD/svg10.dtd">
<svg version="1.0" xmlns="http://www.w3.org/2000/svg"
 width="200.000000pt" height="200.000000pt" viewBox="0 0 200.000000 200.000000"
 preserveAspectRatio="xMidYMid meet">

<g transform="translate(0.000000,200.000000) scale(0.100000,-0.100000)"
fill="#000000" stroke="none">
<path d="M442 1448 c-14 -14 -17 -344 -3 -366 5 -8 17 -12 27 -10 18 3 19 16
22 165 l2 163 223 2 222 3 0 25 0 25 -240 3 c-179 2 -244 -1 -253 -10z"/>
<path d="M1084 1445 c-4 -8 -4 -22 0 -30 4 -13 39 -15 225 -15 l221 0 2 -162
3 -163 25 0 25 0 3 179 c2 123 -1 183 -9 192 -18 22 -487 20 -495 -1z"/>
<path d="M442 928 c-13 -13 -18 -331 -6 -362 5 -14 37 -16 255 -16 l249 0 0
24 c0 13 -7 27 -16 30 -9 3 -110 6 -225 6 l-209 0 0 159 c0 136 -2 160 -16
165 -20 8 -18 8 -32 -6z"/>
<path d="M1542 928 c-8 -8 -12 -59 -12 -165 l0 -153 -212 0 c-117 0 -219 -4
-226 -9 -8 -5 -12 -17 -10 -27 3 -18 17 -19 253 -19 l250 0 3 179 c2 123 -1
183 -9 192 -14 17 -22 17 -37 2z"/>
</g>
</svg>
