<?xml version="1.0" standalone="no"?>
<!DOCTYPE svg PUBLIC "-//W3C//DTD SVG 20010904//EN"
 "http://www.w3.org/TR/2001/REC-SVG-20010904/DTD/svg10.dtd">
<svg version="1.0" xmlns="http://www.w3.org/2000/svg"
 width="200.000000pt" height="200.000000pt" viewBox="0 0 200.000000 200.000000"
 preserveAspectRatio="xMidYMid meet">

<g transform="translate(0.000000,200.000000) scale(0.100000,-0.100000)"
fill="#000000" stroke="none">
<path d="M657 1519 c-16 -9 -17 -44 -17 -448 0 -375 2 -440 15 -451 12 -10 78
25 379 199 200 116 371 213 379 217 18 7 28 29 21 47 -3 6 -44 34 -92 61 -48
28 -211 121 -362 209 -151 87 -281 162 -290 167 -9 5 -23 4 -33 -1z m423 -295
c135 -78 245 -147 245 -154 0 -7 -70 -53 -155 -102 -85 -50 -224 -130 -308
-179 -84 -49 -155 -89 -158 -89 -2 0 -4 167 -4 371 l0 371 68 -38 c37 -21 177
-102 312 -180z"/>
</g>
</svg>
