<svg version="1.1" id="Layer_1" xmlns="http://www.w3.org/2000/svg" xmlns:xlink="http://www.w3.org/1999/xlink" x="0px" y="0px"
	 width="100%" viewBox="0 0 200 200" enable-background="new 0 0 200 200" xml:space="preserve">
<path fill="none" opacity="1.000000" stroke="#000000" stroke-linecap="round" stroke-linejoin="round" stroke-width="8.000000"
	d="
M87.500000,80.500000 
	C85.998398,77.456306 86.491196,74.187920 86.534813,71.000473 
	C86.578659,67.796219 85.202560,66.463768 81.999924,66.472816 
	C62.666744,66.527481 43.333267,66.524628 24.000071,66.473152 
	C21.135937,66.465523 19.466589,67.267090 19.474720,70.500061 
	C19.525015,90.499939 19.493282,110.500008 19.526571,130.499954 
	C19.527798,131.237045 19.920065,131.973465 20.168470,132.844803 
	C21.740797,133.678604 23.635067,133.497192 25.500000,133.497589 
	C43.833332,133.501572 62.166996,133.438843 80.499794,133.537674 
	C85.927124,133.566940 86.584946,132.927551 86.537453,127.499672 
	C86.422249,114.334015 86.510117,101.166649 86.490173,88.000015 
	C86.486794,85.770737 86.425377,83.552620 87.500000,81.500000 
"/>
<path fill="none" opacity="1.000000" stroke="#000000" stroke-linecap="round" stroke-linejoin="round" stroke-width="7.000000"
	d="
M129.500000,60.500000 
	C131.189056,62.202736 131.010300,64.357918 131.008911,66.500008 
	C130.994446,88.833336 130.938049,111.167068 131.084091,133.499451 
	C131.100983,136.080490 130.027298,138.172516 129.500000,140.500000 
"/>
<path fill="none" opacity="1.000000" stroke="#000000" stroke-linecap="round" stroke-linejoin="round" stroke-width="7.000000"
	d="
M155.000000,77.000000 
	C167.082626,87.434837 169.236008,109.919456 155.000000,124.000000 
"/>
<path fill="none" opacity="1.000000" stroke="#000000" stroke-linecap="round" stroke-linejoin="round" stroke-width="7.000000"
	d="
M131.000000,54.500000 
	C131.314270,57.860699 129.841614,59.263142 126.585800,60.695087 
	C120.128807,63.534958 114.151794,67.474136 108.004738,71.008240 
	C103.147842,73.800598 98.390823,76.772789 93.467445,79.439903 
	C91.840652,80.321182 89.833336,80.500000 88.000000,81.000000 
"/>
<path fill="none" opacity="1.000000" stroke="#000000" stroke-linecap="round" stroke-linejoin="round" stroke-width="7.000000"
	d="
M131.000000,143.000000 
	C130.166672,142.000000 129.519974,140.430130 128.471588,140.086746 
	C115.725281,135.911835 105.478333,127.088722 93.563988,121.366768 
	C91.702263,120.472656 90.117546,119.385086 88.000000,119.500000 
"/>
</svg>