<?xml version="1.0" standalone="no"?>
<!DOCTYPE svg PUBLIC "-//W3C//DTD SVG 20010904//EN"
 "http://www.w3.org/TR/2001/REC-SVG-20010904/DTD/svg10.dtd">
<svg version="1.0" xmlns="http://www.w3.org/2000/svg"
 width="200.000000pt" height="200.000000pt" viewBox="0 0 200.000000 200.000000"
 preserveAspectRatio="xMidYMid meet">

<g transform="translate(0.000000,200.000000) scale(0.100000,-0.100000)"
fill="#000000" stroke="none">
<path d="M1060 1390 c-102 -60 -191 -109 -197 -110 -9 0 -13 17 -13 53 0 28
-4 58 -8 65 -7 9 -86 12 -363 10 l-354 -3 -3 -354 c-2 -277 1 -356 10 -363 22
-13 692 -10 706 4 7 7 12 38 12 71 0 46 3 58 14 54 7 -3 99 -55 205 -116 105
-61 195 -111 201 -111 27 0 30 53 30 459 0 230 -3 426 -6 435 -3 9 -16 16 -28
15 -11 0 -104 -50 -206 -109z m180 -339 c0 -198 -4 -362 -8 -365 -5 -3 -92 43
-195 102 l-187 107 0 152 0 151 183 106 c100 58 188 106 195 106 9 0 12 -78
12 -359z m-455 -6 l0 -300 -300 0 -300 0 -3 303 -2 302 302 -2 303 -3 0 -300z"/>
<path d="M1607 1423 c-14 -13 -6 -36 28 -77 19 -23 49 -73 66 -110 26 -57 33
-84 37 -160 7 -134 -28 -240 -110 -334 -17 -20 -28 -43 -26 -55 14 -94 159
106 189 261 24 125 -5 279 -71 381 -53 83 -92 115 -113 94z"/>
<path d="M1487 1303 c-14 -13 -6 -34 28 -78 80 -106 76 -258 -10 -371 -29 -37
-32 -62 -9 -71 22 -8 70 41 102 107 24 49 27 66 27 160 0 91 -3 111 -24 150
-48 92 -89 129 -114 103z"/>
</g>
</svg>
