<?xml version="1.0" standalone="no"?>
<!DOCTYPE svg PUBLIC "-//W3C//DTD SVG 20010904//EN"
 "http://www.w3.org/TR/2001/REC-SVG-20010904/DTD/svg10.dtd">
<svg version="1.0" xmlns="http://www.w3.org/2000/svg"
 width="200.000000pt" height="200.000000pt" viewBox="0 0 200.000000 200.000000"
 preserveAspectRatio="xMidYMid meet">

<g transform="translate(0.000000,200.000000) scale(0.100000,-0.100000)"
fill="#000000" stroke="none">
<path d="M1634 1426 c-3 -8 19 -46 50 -87 125 -165 156 -364 86 -553 -20 -51
-67 -129 -122 -199 -20 -24 -20 -29 -7 -42 22 -22 42 -11 87 48 52 68 99 162
119 240 19 75 21 221 4 297 -38 162 -189 368 -217 296z"/>
<path d="M1045 1300 c-93 -55 -173 -100 -177 -100 -5 0 -8 22 -8 48 0 26 -5
53 -12 60 -17 17 -629 17 -646 0 -9 -9 -12 -92 -12 -314 0 -166 3 -309 6 -318
5 -14 44 -16 329 -16 359 0 335 -5 335 71 0 22 5 39 11 39 6 0 90 -45 186
-101 142 -82 177 -98 189 -88 12 10 14 72 12 413 -3 393 -3 401 -23 403 -11 1
-96 -43 -190 -97z m155 -316 l0 -325 -58 33 c-32 18 -108 62 -170 98 l-113 64
3 135 3 135 160 93 c88 50 163 92 168 92 4 1 7 -146 7 -325z m-400 6 l0 -270
-275 0 -275 0 0 263 c0 145 3 267 7 270 3 4 127 7 275 7 l268 0 0 -270z"/>
<path d="M1530 1321 c-8 -16 -3 -27 27 -63 130 -155 131 -375 2 -539 -32 -41
-37 -67 -13 -76 19 -7 55 26 94 87 88 137 98 314 26 465 -32 68 -93 145 -114
145 -6 0 -16 -9 -22 -19z"/>
<path d="M1427 1223 c-12 -12 -7 -40 9 -54 23 -19 53 -82 64 -137 14 -65 -1
-132 -46 -200 -20 -30 -33 -60 -30 -68 10 -25 44 -15 71 20 85 112 89 288 8
395 -37 50 -59 62 -76 44z"/>
</g>
</svg>
