<?xml version="1.0" standalone="no"?>
<!DOCTYPE svg PUBLIC "-//W3C//DTD SVG 20010904//EN"
 "http://www.w3.org/TR/2001/REC-SVG-20010904/DTD/svg10.dtd">
<svg version="1.0" xmlns="http://www.w3.org/2000/svg"
 width="200.000000pt" height="200.000000pt" viewBox="0 0 200.000000 200.000000"
 preserveAspectRatio="xMidYMid meet">

<g transform="translate(0.000000,200.000000) scale(0.100000,-0.100000)"
fill="#000000" stroke="none">
<path d="M1035 1330 c-104 -60 -195 -110 -202 -110 -8 0 -13 22 -15 63 l-3 62
-360 0 -360 0 -3 -349 c-2 -249 1 -353 9 -362 16 -19 688 -21 707 -2 7 7 12
38 12 70 0 32 4 58 9 58 5 0 87 -45 182 -101 220 -128 225 -130 243 -123 15 6
16 54 14 453 -3 437 -3 446 -23 449 -11 1 -105 -47 -210 -108z m175 -345 c0
-201 -3 -365 -7 -365 -5 1 -91 50 -193 109 l-185 109 -3 149 -2 148 182 107
c101 58 189 107 196 107 9 1 12 -78 12 -364z m-452 3 l-3 -303 -300 0 -300 0
-3 290 c-1 159 0 295 3 302 3 10 72 13 305 13 l300 0 -2 -302z"/>
<path d="M1477 1223 c-18 -17 1 -45 90 -135 l97 -98 -102 -104 c-73 -73 -101
-108 -96 -120 14 -35 49 -16 146 81 l98 98 98 -98 c95 -95 126 -113 139 -81 4
11 -23 45 -91 113 -53 53 -96 101 -96 106 0 6 43 53 95 105 67 66 95 101 93
115 -6 45 -42 27 -138 -70 -52 -52 -99 -95 -105 -95 -6 0 -53 43 -105 95 -90
91 -108 103 -123 88z"/>
</g>
</svg>
