<?xml version="1.0" standalone="no"?>
<!DOCTYPE svg PUBLIC "-//W3C//DTD SVG 20010904//EN"
 "http://www.w3.org/TR/2001/REC-SVG-20010904/DTD/svg10.dtd">
<svg version="1.0" xmlns="http://www.w3.org/2000/svg"
 width="200.000000pt" height="200.000000pt" viewBox="0 0 200.000000 200.000000"
 preserveAspectRatio="xMidYMid meet">

<g transform="translate(0.000000,200.000000) scale(0.100000,-0.100000)"
fill="#000000" stroke="none">
<path d="M520 1051 c0 -400 2 -450 16 -455 9 -3 208 -6 444 -6 349 0 430 3
439 14 8 9 10 136 9 452 l-3 439 -452 3 -453 2 0 -449z m848 -4 l2 -397 -397
2 -398 3 -3 375 c-1 206 0 385 3 398 l5 22 393 -2 392 -3 3 -398z"/>
</g>
</svg>
